<svg xmlns="http://www.w3.org/2000/svg" version="1.1" xmlns:xlink="http://www.w3.org/1999/xlink" xmlns:svgjs="http://svgjs.dev/svgjs" width="1500" height="537" viewBox="0 0 1500 537"><g transform="matrix(1,0,0,1,-0.9090909090911055,0.2863452918365397)"><svg viewBox="0 0 396 142" data-background-color="#000000" preserveAspectRatio="xMidYMid meet" height="537" width="1500" xmlns="http://www.w3.org/2000/svg" xmlns:xlink="http://www.w3.org/1999/xlink"><g id="tight-bounds" transform="matrix(1,0,0,1,0.24000000000003752,-0.07571886674261918)"><svg viewBox="0 0 395.5199999999999 142.15143773348524" height="142.15143773348524" width="395.5199999999999"><g><svg viewBox="0 0 680.1021013129479 244.43135999999998" height="142.15143773348524" width="395.5199999999999"><g transform="matrix(1,0,0,1,0,88.20058205446728)"><svg viewBox="0 0 395.52 68.03019589106545" height="68.03019589106545" width="395.52"><g id="textblocktransform"><svg viewBox="0 0 395.52 68.03019589106545" height="68.03019589106545" width="395.52" id="textblock"><g><svg viewBox="0 0 395.52 68.03019589106545" height="68.03019589106545" width="395.52"><g transform="matrix(1,0,0,1,0,0)"><svg width="395.52" viewBox="2.05 -35.5 209.28 36" height="68.03019589106545" data-palette-color="#e2ff8c"><path d="M2.05 0L2.05-35 7.55-35 7.55 0 2.05 0ZM11.65 0L11.65-35 18.55-35 23.9-14.05 24-14.05 24-35 28.9-35 28.9 0 23.25 0 16.65-25.55 16.55-25.55 16.55 0 11.65 0ZM33 0L33-35 41.4-35Q45.5-35 47.55-32.8 49.6-30.6 49.6-26.35L49.6-26.35 49.6-8.65Q49.6-4.4 47.55-2.2 45.5 0 41.4 0L41.4 0 33 0ZM38.5-5L41.3-5Q42.65-5 43.37-5.8 44.1-6.6 44.1-8.4L44.1-8.4 44.1-26.6Q44.1-28.4 43.37-29.2 42.65-30 41.3-30L41.3-30 38.5-30 38.5-5ZM53.29 0L53.29-35 58.79-35 58.79 0 53.29 0ZM61.44 0L67.14-35 74.59-35 80.29 0 74.79 0 73.79-6.95 73.79-6.85 67.54-6.85 66.54 0 61.44 0ZM68.19-11.6L73.14-11.6 70.69-28.9 70.59-28.9 68.19-11.6ZM82.94 0L82.94-35 91.09-35Q95.34-35 97.29-33.02 99.24-31.05 99.24-26.95L99.24-26.95 99.24-24.8Q99.24-19.35 95.64-17.9L95.64-17.9 95.64-17.8Q97.64-17.2 98.46-15.35 99.29-13.5 99.29-10.4L99.29-10.4 99.29-4.25Q99.29-2.75 99.39-1.83 99.49-0.9 99.89 0L99.89 0 94.29 0Q93.99-0.85 93.89-1.6 93.79-2.35 93.79-4.3L93.79-4.3 93.79-10.7Q93.79-13.1 93.01-14.05 92.24-15 90.34-15L90.34-15 88.44-15 88.44 0 82.94 0ZM88.44-20L90.44-20Q92.09-20 92.91-20.85 93.74-21.7 93.74-23.7L93.74-23.7 93.74-26.4Q93.74-28.3 93.06-29.15 92.39-30 90.94-30L90.94-30 88.44-30 88.44-20ZM111.09 0.5Q107.09 0.5 104.99-1.78 102.89-4.05 102.89-8.3L102.89-8.3 102.89-35 108.39-35 108.39-7.9Q108.39-6.1 109.11-5.3 109.84-4.5 111.19-4.5L111.19-4.5Q112.54-4.5 113.26-5.3 113.99-6.1 113.99-7.9L113.99-7.9 113.99-35 119.29-35 119.29-8.3Q119.29-4.05 117.19-1.78 115.09 0.5 111.09 0.5L111.09 0.5ZM123.18 0L123.18-35 131.03-35 134.53-9.95 134.63-9.95 138.13-35 145.98-35 145.98 0 140.78 0 140.78-26.5 140.68-26.5 136.68 0 132.08 0 128.08-26.5 127.98-26.5 127.98 0 123.18 0ZM150.08 0L150.08-35 157.93-35 161.43-9.95 161.53-9.95 165.03-35 172.88-35 172.88 0 167.68 0 167.68-26.5 167.58-26.5 163.58 0 158.98 0 154.98-26.5 154.88-26.5 154.88 0 150.08 0ZM182.03 0L182.03-14.9 175.38-35 181.23-35 184.98-22.15 185.08-22.15 188.83-35 194.18-35 187.53-14.9 187.53 0 182.03 0ZM203.03 0.5Q199.03 0.5 196.98-1.78 194.93-4.05 194.93-8.3L194.93-8.3 194.93-10.3 200.13-10.3 200.13-7.9Q200.13-4.5 202.98-4.5L202.98-4.5Q204.38-4.5 205.1-5.33 205.83-6.15 205.83-8L205.83-8Q205.83-10.2 204.83-11.88 203.83-13.55 201.13-15.9L201.13-15.9Q197.73-18.9 196.38-21.33 195.03-23.75 195.03-26.8L195.03-26.8Q195.03-30.95 197.13-33.23 199.23-35.5 203.23-35.5L203.23-35.5Q207.18-35.5 209.2-33.23 211.23-30.95 211.23-26.7L211.23-26.7 211.23-25.25 206.03-25.25 206.03-27.05Q206.03-28.85 205.33-29.68 204.63-30.5 203.28-30.5L203.28-30.5Q200.53-30.5 200.53-27.15L200.53-27.15Q200.53-25.25 201.55-23.6 202.58-21.95 205.28-19.6L205.28-19.6Q208.73-16.6 210.03-14.15 211.33-11.7 211.33-8.4L211.33-8.4Q211.33-4.1 209.2-1.8 207.08 0.5 203.03 0.5L203.03 0.5Z" opacity="1" transform="matrix(1,0,0,1,0,0)" fill="#e2ff8c" class="wordmark-text-0" data-fill-palette-color="primary" id="text-0"></path></svg></g></svg></g></svg></g></svg></g><g transform="matrix(1,0,0,1,435.6707413129479,0)"><svg viewBox="0 0 244.43135999999998 244.43135999999998" height="244.43135999999998" width="244.43135999999998"><g><svg viewBox="0 0 244.43135999999998 244.43135999999998" height="244.43135999999998" width="244.43135999999998"><g transform="matrix(1,0,0,1,64.60265593644992,72.85591972738268)"><svg viewBox="0 0 115.22604812710014 98.7195205452346" height="98.7195205452346" width="115.22604812710014"><g><svg xmlns="http://www.w3.org/2000/svg" xmlns:xlink="http://www.w3.org/1999/xlink" version="1.1" x="0" y="0" viewBox="17.758578643762693 22.38230854637602 64.45043835061226 55.217691453623985" style="enable-background:new 0 0 100 100;" xml:space="preserve" height="98.7195205452346" width="115.22604812710014" class="icon-cg-0" data-fill-palette-color="accent" id="cg-0"><g fill="#dfd5cb" data-fill-palette-color="accent"><g fill="#dfd5cb" data-fill-palette-color="accent"><path d="M82.1 36.4c-0.1-0.3-0.3-0.6-0.6-0.7L54.1 22.5c-0.6-0.3-1.4 0-1.7 0.6l-2.1 4.4L49 23.9c-0.2-0.7-0.9-1-1.6-0.8L18.6 33.2c-0.3 0.1-0.6 0.3-0.7 0.6s-0.2 0.6-0.1 1l14.5 41.4c0.2 0.5 0.7 0.8 1.2 0.8 0.1 0 0.3 0 0.4-0.1l15.2-5.3 12.3 5.9c0.2 0.1 0.4 0.1 0.5 0.1 0.5 0 0.9-0.3 1.1-0.7l19-39.5C82.2 37.1 82.3 36.8 82.1 36.4zM34.3 74.1l-13.7-39L47 25.9l1.7 4.9L33.4 62.6c-0.1 0.3-0.2 0.6-0.1 1 0.1 0.3 0.3 0.6 0.6 0.7L46 70 34.3 74.1zM61.4 74.7L36.2 62.6l17.9-37.2 25.2 12.1L61.4 74.7z" fill="#dfd5cb" data-fill-palette-color="accent"></path><path d="M48.3 45.7c0 3.1 4 11.9 4.5 12.8 0.1 0.3 0.4 0.5 0.7 0.6 0.2 0.1 0.4 0.1 0.6 0.1 0.1 0 0.2 0 0.4-0.1 1-0.3 10.2-3.1 12.6-5.1 1.3-1.1 2.1-2.7 2.3-4.5 0.1-1.7-0.4-3.4-1.6-4.8-1.7-2-4.4-2.7-6.9-2-1-2.3-3.4-3.9-6-3.9-1.7 0-3.4 0.7-4.6 2C49 42.3 48.3 44 48.3 45.7zM52 42.8c0.8-0.8 1.8-1.2 2.8-1.2 0 0 0 0 0 0 1.9 0 3.6 1.4 4 3.3 0.1 0.4 0.3 0.7 0.7 0.9s0.8 0.1 1.2-0.1c1.7-1 3.8-0.6 5.1 0.8 0 0 0 0 0 0 0.7 0.8 1 1.9 1 2.9-0.1 1.1-0.6 2.1-1.4 2.8-1.3 1.2-6.9 3.1-10.7 4.3-1.6-3.6-3.8-9.1-3.8-10.9C50.8 44.6 51.2 43.6 52 42.8z" fill="#dfd5cb" data-fill-palette-color="accent"></path></g></g></svg></g></svg></g><g id="text-0"><path d="M23.579 94.383l-18.924-5.287 0.833-2.98 18.923 5.288z" fill="#dfd5cb" data-fill-palette-color="accent"></path><path d="M31.005 75.259l-17.19-9.516 1.88-3.396 11.748 3.07 0.024-0.044-10.293-5.698 1.334-2.409 17.19 9.515-1.537 2.777-14.338-3.706-0.029 0.052 12.545 6.945z" fill="#dfd5cb" data-fill-palette-color="accent"></path><path d="M46.148 53.155l-14.155-13.627 3.274-3.4c1.066-1.107 2.161-1.65 3.286-1.629 1.12 0.016 2.255 0.578 3.405 1.685v0l7.153 6.886c1.145 1.103 1.75 2.216 1.814 3.339 0.064 1.123-0.437 2.238-1.503 3.346v0zM46.274 48.982l1.086-1.129c0.351-0.364 0.513-0.748 0.486-1.153-0.026-0.404-0.284-0.841-0.773-1.312v0l-7.354-7.079c-0.489-0.471-0.936-0.711-1.34-0.723-0.405-0.011-0.783 0.165-1.134 0.53v0l-1.086 1.128z" fill="#dfd5cb" data-fill-palette-color="accent"></path><path d="M66.263 35.879l-10.68-16.493 2.597-1.681 10.68 16.493z" fill="#dfd5cb" data-fill-palette-color="accent"></path><path d="M83.693 26.745l-3.498-19.597 3.954-1.388 9.524 17.48-2.909 1.021-1.82-3.496 0.019 0.057-3.314 1.164 0.746 3.81zM85.111 19.34l2.618-0.919-4.517-8.705-0.047 0.017z" fill="#dfd5cb" data-fill-palette-color="accent"></path><path d="M109.802 20.005l-1.692-19.576 4.563-0.394c1.584-0.137 2.772 0.131 3.565 0.803 0.786 0.673 1.245 1.775 1.378 3.307v0l0.104 1.203c0.175 2.028-0.383 3.372-1.675 4.031v0l0.005 0.059c0.761 0.155 1.327 0.563 1.699 1.226 0.365 0.67 0.597 1.581 0.697 2.734v0l0.297 3.44c0.048 0.557 0.107 1.006 0.177 1.347 0.063 0.342 0.185 0.675 0.367 0.999v0l-3.132 0.271c-0.14-0.308-0.242-0.6-0.306-0.875-0.057-0.276-0.117-0.778-0.18-1.507v0l-0.31-3.579c-0.077-0.895-0.277-1.505-0.599-1.831-0.316-0.333-0.829-0.469-1.538-0.408v0l-1.063 0.092 0.725 8.391zM111.917 8.554l1.114-0.097c0.616-0.053 1.067-0.252 1.35-0.597 0.277-0.344 0.384-0.888 0.32-1.63v0l-0.131-1.512c-0.061-0.709-0.232-1.212-0.511-1.508-0.279-0.296-0.691-0.421-1.234-0.374v0l-1.392 0.12z" fill="#dfd5cb" data-fill-palette-color="accent"></path><path d="M140.364 21.208c-1.476-0.251-2.529-0.863-3.159-1.834-0.631-0.971-0.813-2.241-0.546-3.808v0l2.516-14.775 3.05 0.519-2.555 15.002c-0.113 0.662-0.063 1.163 0.149 1.503 0.219 0.341 0.577 0.554 1.075 0.639v0c0.498 0.085 0.907 0.003 1.226-0.247 0.319-0.249 0.535-0.705 0.648-1.367v0l2.556-15.002 2.931 0.499-2.517 14.776c-0.267 1.567-0.859 2.705-1.775 3.412-0.923 0.707-2.123 0.934-3.599 0.683z" fill="#dfd5cb" data-fill-palette-color="accent"></path><path d="M161.073 26.928l8.392-17.765 3.988 1.884-4.228 13.552 0.045 0.022 7.783-11.874 3.988 1.884-8.392 17.766-2.644-1.249 6.355-13.453-0.045-0.021-8.385 12.494-2.337-1.104 4.325-14.412-0.054-0.026-6.355 13.453z" fill="#dfd5cb" data-fill-palette-color="accent"></path><path d="M186.529 42.013l13.124-14.622 3.283 2.946-7.929 11.777 0.037 0.033 10.855-9.15 3.282 2.946-13.125 14.622-2.175-1.953 9.938-11.072-0.037-0.033-11.609 9.572-1.924-1.726 8.268-12.572-0.045-0.04-9.938 11.072z" fill="#dfd5cb" data-fill-palette-color="accent"></path><path d="M208.161 66.234l7.09-4.434 7.59-9.149 1.741 2.784-5.001 5.611 0.032 0.05 7.233-2.04 1.593 2.546-11.548 2.821-7.09 4.434z" fill="#dfd5cb" data-fill-palette-color="accent"></path><path d="M219.322 90.511c-0.463-1.423-0.41-2.634 0.161-3.631 0.573-0.991 1.615-1.733 3.127-2.225v0l1.063-0.346 0.902 2.77-1.281 0.418c-1.208 0.393-1.647 1.099-1.315 2.117v0c0.163 0.5 0.434 0.828 0.814 0.984 0.375 0.165 0.892 0.14 1.55-0.074v0c0.784-0.255 1.416-0.657 1.895-1.205 0.479-0.548 0.983-1.439 1.511-2.675v0c0.667-1.561 1.356-2.722 2.066-3.485 0.706-0.755 1.603-1.309 2.691-1.663v0c1.474-0.48 2.737-0.478 3.79 0.004 1.053 0.483 1.811 1.436 2.274 2.859v0c0.457 1.404 0.398 2.599-0.176 3.584-0.575 0.985-1.618 1.723-3.13 2.215v0l-0.769 0.251-0.905-2.781 0.958-0.312c0.639-0.208 1.064-0.483 1.275-0.824 0.217-0.344 0.247-0.756 0.09-1.236v0c-0.319-0.98-1.077-1.276-2.272-0.887v0c-0.671 0.218-1.24 0.607-1.709 1.165-0.471 0.552-0.967 1.445-1.489 2.678v0c-0.669 1.575-1.366 2.736-2.088 3.482-0.721 0.752-1.666 1.319-2.837 1.7v0c-1.531 0.498-2.831 0.502-3.9 0.011-1.063-0.493-1.829-1.458-2.296-2.894z" fill="#dfd5cb" data-fill-palette-color="accent"></path><path d="M4.526 154.865l19.192-5.366 0.844 3.018-19.192 5.366z" fill="#dfd5cb" data-fill-palette-color="accent"></path><path d="M13.659 178.159l17.437-9.647 1.904 3.441-8.961 8.435 0.029 0.053 10.434-5.773 1.348 2.436-17.438 9.647-1.555-2.812 10.91-10.334-0.024-0.044-12.731 7.043z" fill="#dfd5cb" data-fill-palette-color="accent"></path><path d="M31.843 204.414l14.359-13.817 3.315 3.445c1.079 1.122 1.587 2.254 1.522 3.395-0.06 1.137-0.672 2.267-1.837 3.388v0l-7.255 6.981c-1.165 1.121-2.317 1.689-3.456 1.705-1.144 0.02-2.255-0.53-3.334-1.652v0zM36.064 204.7l1.107 1.151c0.355 0.369 0.738 0.546 1.148 0.53 0.41-0.016 0.859-0.259 1.348-0.729v0l7.471-7.189c0.489-0.47 0.749-0.91 0.78-1.319 0.031-0.409-0.13-0.798-0.485-1.166v0l-1.107-1.151z" fill="#dfd5cb" data-fill-palette-color="accent"></path><path d="M55.433 224.585l10.844-16.719 2.629 1.705-10.844 16.719z" fill="#dfd5cb" data-fill-palette-color="accent"></path><path d="M76.946 235.752l9.681-17.718 4.009 1.413-3.563 19.873-2.956-1.041 0.781-3.926-0.02 0.057-3.36-1.184-1.833 3.491zM82.765 230.798l2.663 0.938 1.956-9.753-0.057-0.02z" fill="#dfd5cb" data-fill-palette-color="accent"></path><path d="M107.902 243.588l1.741-19.851 4.623 0.405c1.604 0.141 2.744 0.618 3.42 1.432 0.67 0.807 0.938 1.986 0.802 3.536v0l-0.107 1.223c-0.181 2.061-0.975 3.307-2.382 3.738v0l-0.004 0.05c0.735 0.298 1.228 0.809 1.478 1.532 0.25 0.73 0.323 1.681 0.221 2.854v0l-0.306 3.489c-0.049 0.563-0.07 1.022-0.061 1.377 0.002 0.354 0.065 0.707 0.187 1.058v0l-3.171-0.278c-0.091-0.329-0.141-0.637-0.149-0.924-0.015-0.288 0.01-0.8 0.075-1.537v0l0.319-3.638c0.079-0.901-0.011-1.547-0.271-1.937-0.26-0.383-0.751-0.607-1.474-0.67v0l-1.073-0.094-0.747 8.509zM112.018 232.52l1.133 0.099c0.623 0.055 1.104-0.067 1.445-0.364 0.339-0.291 0.542-0.814 0.608-1.569v0l0.135-1.531c0.063-0.722-0.017-1.254-0.241-1.594-0.23-0.347-0.62-0.545-1.17-0.594v0l-1.412-0.123z" fill="#dfd5cb" data-fill-palette-color="accent"></path><path d="M143.636 242.786c-1.496 0.253-2.709 0.019-3.64-0.7-0.925-0.721-1.522-1.878-1.791-3.473v0l-2.531-14.985 3.08-0.52 2.569 15.211c0.114 0.676 0.334 1.141 0.661 1.397 0.319 0.25 0.731 0.332 1.236 0.246v0c0.505-0.085 0.87-0.299 1.096-0.64 0.218-0.347 0.27-0.859 0.156-1.535v0l-2.57-15.211 2.972-0.502 2.531 14.985c0.269 1.594 0.082 2.884-0.561 3.87-0.637 0.985-1.706 1.604-3.208 1.857z" fill="#dfd5cb" data-fill-palette-color="accent"></path><path d="M169.325 234.948l-8.49-18.029 4.044-1.904 7.881 12.05 0.046-0.021-4.27-13.751 4.044-1.905 8.49 18.029-2.681 1.262-6.428-13.65-0.054 0.026 4.37 14.619-2.366 1.114-8.486-12.681-0.054 0.026 6.428 13.65z" fill="#dfd5cb" data-fill-palette-color="accent"></path><path d="M199.616 216.72l-13.299-14.841 3.329-2.983 11.003 9.287 0.037-0.033-8.03-11.951 3.329-2.984 13.299 14.841-2.207 1.978-10.069-11.237-0.045 0.04 8.375 12.755-1.947 1.745-11.764-9.718-0.044 0.04 10.069 11.236z" fill="#dfd5cb" data-fill-palette-color="accent"></path><path d="M224.892 188.228l-7.189-4.502-11.708-2.87 1.764-2.816 7.333 2.072 0.031-0.05-5.065-5.692 1.615-2.58 7.693 9.28 7.189 4.502z" fill="#dfd5cb" data-fill-palette-color="accent"></path><path d="M238.648 159.782c-0.471 1.442-1.238 2.399-2.302 2.87-1.064 0.471-2.364 0.456-3.9-0.046v0l-1.082-0.353 0.917-2.807 1.3 0.424c1.227 0.401 2.009 0.086 2.345-0.945v0c0.165-0.506 0.142-0.937-0.071-1.294-0.21-0.363-0.648-0.652-1.312-0.869v0c-0.797-0.26-1.558-0.309-2.282-0.147-0.718 0.164-1.66 0.595-2.826 1.292v0c-1.482 0.874-2.743 1.414-3.783 1.62-1.032 0.202-2.098 0.123-3.198-0.236v0c-1.499-0.489-2.535-1.248-3.11-2.275-0.574-1.027-0.626-2.262-0.155-3.704v0c0.467-1.429 1.23-2.373 2.289-2.832 1.062-0.465 2.361-0.447 3.898 0.055v0l0.777 0.254-0.92 2.818-0.967-0.316c-0.651-0.213-1.167-0.241-1.547-0.085-0.38 0.156-0.649 0.477-0.808 0.964v0c-0.324 0.993 0.118 1.686 1.325 2.081v0c0.683 0.223 1.383 0.245 2.099 0.066 0.721-0.171 1.664-0.605 2.829-1.302v0c1.488-0.893 2.751-1.429 3.79-1.607 1.032-0.181 2.145-0.076 3.34 0.314v0c1.549 0.506 2.613 1.277 3.192 2.312 0.585 1.038 0.639 2.287 0.162 3.748z" fill="#dfd5cb" data-fill-palette-color="accent"></path><path d="M2.47 121.951c0-4.204 3.408-7.612 7.613-7.612 4.204 0 7.612 3.408 7.612 7.612 0 4.204-3.408 7.612-7.612 7.613-4.204 0-7.612-3.408-7.613-7.613z" fill="#dfd5cb" data-fill-palette-color="accent"></path><path d="M226.736 121.951c0-4.204 3.408-7.612 7.613-7.612 4.204 0 7.612 3.408 7.612 7.612 0 4.204-3.408 7.612-7.612 7.613-4.204 0-7.612-3.408-7.613-7.613z" fill="#dfd5cb" data-fill-palette-color="accent"></path></g><g id="text-1"></g></svg></g></svg></g></svg></g><defs></defs></svg><rect width="395.5199999999999" height="142.15143773348524" fill="none" stroke="none" visibility="hidden"></rect></g></svg></g></svg>